<svg xmlns="http://www.w3.org/2000/svg" xmlns:xlink="http://www.w3.org/1999/xlink" width="756.504" height="112.95" viewBox="0 0 756.504 112.95"><defs><path id="a" d="M-5.496-8.86h767v127h-767z"/></defs><clipPath id="b"><use xlink:href="#a" overflow="visible"/></clipPath><g clip-path="url(#b)"><path d="M526.363 107.896c-2.728 0-3.844-1.529-3.873-3.948V40.887l2.207-2.417c5.333 13.782 24.684 6.245 21.024-11.322l-.655-.208c-3.146 3.855-10.746 2.249-10.895-2.284l-.609-.174c-3.562 5.75-7.101 10.188-11.19 14.56-.72-7.104-5.335-12.703-11.741-15.551h-.855c-4.621 4.35-10.896 10.457-17.345 15.494l.828 1.049 3.03-2.164c2.84 1.109 4.325 3.717 4.325 7.799v47.048c0 1.313.187 3.604.37 4.794 1.472 9.451 8.468 14.581 16.914 14.581 12.364 0 17.604-7.63 18.217-16.953l-1.332-.104c-.535 7.824-4.524 12.861-8.42 12.861"/><path d="M613.964 95.056c-.339 7.979-2.817 12.122-5.852 12.122-1.294 0-2.211-.672-2.211-2.526V43.409c0-2.558-.118-4.832-.458-6.854-1.574-9.542-6.802-13.149-14.354-13.149-7.685 0-13.995 4.536-16.408 12.608h-.285c-1.346-5.18-5.544-10.086-10.843-12.44h-.854c-4.621 4.351-10.322 9.763-16.77 14.798l.83 1.047 2.454-1.763c2.842 1.109 4.325 3.421 4.325 7.503l-.027 65.896h21.814s-.005-68.605-.011-68.704c-.274-5.323.86-9.953 5.42-9.953 1.523 0 2.826 1.286 3.189 2.775.095.357.187 1.16.187 1.807v56.338c0 2.262.199 4.878.507 6.634 1.736 9.808 7.89 12.142 14.087 12.144 13.056.002 16.243-7.484 16.632-16.953l-1.372-.087zM234.072 101.865l-1.09.606c-2.242-1.753-6.496-4.495-7.795-6.396-.194-.285-.458-1.016-.458-1.394V34.942l1.089-.695c2.208 1.707 6.496 4.584 7.796 6.481.193.284.458 1.017.458 1.396v59.741zm16.651-72.469c-2.925-1.759-6.478-3.688-9.766-6.299h-1.163c-7.025 5.599-15.488 10.438-27.729 17.335-7.586 4.275-9.191 9.607-9.191 16.972V98.37c0 5.044 3.188 7.889 5.13 9.051 2.849 1.694 6.534 3.688 9.822 6.298h1.104c5.146-4.566 15.514-10.429 27.728-17.335 7.58-4.287 9.192-9.608 9.192-16.974V38.442c.003-5.043-3.188-7.878-5.127-9.046"/><path d="M188.42 107.896c-2.725 0-3.844-1.529-3.872-3.948V40.887l2.207-2.417c5.332 13.782 26.101 6.245 22.354-11.322l-.674-.208c-3.601 4.04-11.113 2.271-12.2-2.284l-.611-.174c-3.562 5.75-7.099 10.188-11.188 14.56-.722-7.104-5.336-12.703-11.742-15.551h-.856c-4.623 4.35-10.896 10.457-17.343 15.494l.826 1.049 3.032-2.164c2.84 1.109 4.326 3.717 4.326 7.799v47.048c0 1.313.184 3.604.367 4.794 1.472 9.451 8.47 14.581 16.914 14.581 12.367 0 17.605-7.63 18.219-16.953l-1.332-.104c-.539 7.824-4.527 12.861-8.427 12.861M385.577 31.773c9.229 17.332 7.713 33.11-1.802 39.717V33.021l1.802-1.248zm3.83 76.311c-3.514 0-5.632-2.823-5.632-6.318V72.78c16.675-7.591 33.584-28.212 12.683-50.333h-.987c-4.36 3.921-13.188 10.035-23.892 16.653-7.396 4.572-9.605 9.555-9.605 16.878v30.608c0 1.991.165 4.462.376 6.218 1.552 12.812 8.759 19.286 22.539 19.286 12.005 0 17.522-8.787 19.28-21.52l-1.362-.146c-1.394 10.316-5.162 17.66-13.4 17.66"/><defs><path id="c" d="M1.001-1H615.34v114.716H1.001z"/></defs><clipPath id="d"><use xlink:href="#c" overflow="visible"/></clipPath><path clip-path="url(#d)" d="M147.928 104.658v-63.99l3.884-3.539v-.858c-5.794-2.517-14.677-8.558-19.759-12.774h-.782c-6.646 4.805-18.583 11.699-26.486 16.104-5.694 3.168-9.338 6.37-9.338 15.271v40.8c0 1.092.158 3.101.298 4.07 1.199 8.467 7.324 12.352 14.833 12.352 7.677 0 13.472-5.042 16.165-10.65h.236c1.614 5.324 5.355 10.657 13.771 10.657 13.061 0 16.229-7.485 16.617-16.953l-1.373-.082c-.338 7.981-2.895 12.123-5.854 12.123-1.292-.004-2.212-.675-2.212-2.531m-29.198 3.316c-.788 0-1.474-.391-1.474-1.702V35.095l.423-.267c2.335 2.254 5.713 5.096 8.324 6.729v58.229c-1.163 3.058-5.066 8.188-7.273 8.188"/><g><defs><path id="e" d="M1.001-1H615.34v114.716H1.001z"/></defs><clipPath id="f"><use xlink:href="#e" overflow="visible"/></clipPath><path clip-path="url(#f)" d="M42.894 19.403l4.948-3.234c8.767-5.107 15.789 9.586 15.789 16.178 0 7.016-.056 12.02-9.042 17.492l-11.127 6.783V26.771c0-2.658-.197-5.106-.568-7.368m-.252-1.428C40.207 6.19 32.491-.065 20.638-.065c-12.59 0-19.02 7.719-19.02 15.536l1.351.089c0-6.58 4.885-11.901 9.41-11.901 3.848 0 6.434 2.15 6.434 6.748v91.823c0 .997-.016 2.22-.214 3.287-.51 2.704-1.972 4.793-5.526 4.793-2.876 0-5.999-2.506-5.999-5.372 0-2.714.826-4.606 3.571-5.82 2.479-1.095 4.522-3.104 4.522-7.098 0-4.195-3.385-6.947-6.677-6.947-5.004 0-7.554 4.134-7.554 9.548 0 10.086 5.253 17.52 16.97 17.52 13.377 0 22.718-7.598 24.747-20.453.479-3.034.809-6.824.809-10.64V58.184l5.312-3.239c2.234-1.29 4.198-1.911 6.001-1.911 5.174 0 8.166 3.238 8.166 9.254V94.75c0 4.052.021 7.417-.374 8.83-.696 2.499-2.869 3.628-5.012 3.628-4.809 0-9.369-5.767-9.369-16.517 0-7.342 2.729-13.184 8.347-17.675l-.771-1.089c-5.514 4.107-8.997 10.676-8.997 18.798 0 13.129 6.943 21.367 18.038 21.367 12.842 0 24.296-8.893 24.296-31.222 0-24.924-15.083-32.904-29.353-31.291l-.128-.422C70.709 43.8 85.639 36.001 85.639 21.345c0-11.747-4.912-17.848-13.157-22.318h-.811L71.657-1 42.642 17.975z"/><path d="M318.735 36.254c-1.604-8.479-6.887-12.854-13.86-12.854-7.688 0-14.043 4.531-16.453 12.609h-.235c-1.341-5.182-5.541-10.088-10.836-12.441h-.857c-4.623 4.352-10.896 10.163-17.343 15.198l.827 1.047 3.029-2.162c2.843 1.109 4.326 3.421 4.326 7.505l-.029 65.894h21.815s-.004-69.765-.01-69.862c0-4.396 1.078-8.794 5.412-8.794 1.522 0 2.824 1.286 3.193 2.776.09.356.184 1.16.184 1.806v74.074h21.787v-.078l.002.078V42.346c0-5.329.861-9.952 5.422-9.952 1.521 0 2.822 1.286 3.194 2.776.089.356.181 1.16.181 1.806v56.338c0 2.262.198 4.878.509 6.633 1.733 9.809 7.886 12.143 14.082 12.144 13.06.002 16.242-7.483 16.632-16.952l-1.373-.082c-.338 7.979-2.819 12.122-5.854 12.122-1.291 0-2.211-.672-2.211-2.526l.002-42.449V43.411c0-2.558-.122-4.834-.457-6.854-1.577-9.542-6.803-13.149-14.354-13.149-7.763 0-14.131 4.625-16.486 12.854h-.237l-.002-.008zM470.514 31.713c9.215 17.332 7.698 33.164-1.802 39.775V32.961l1.802-1.248zm3.824 76.371c-3.507 0-5.625-2.823-5.625-6.317V72.78c16.648-7.591 33.562-28.211 12.664-50.332h-.987c-4.354 3.92-13.171 10.034-23.874 16.653-7.396 4.571-9.605 9.554-9.605 16.877v30.609c0 1.99.164 4.463.377 6.219 1.553 12.812 8.76 19.286 22.539 19.286 11.987 0 17.5-8.788 19.255-21.521l-1.363-.146c-1.392 10.315-5.157 17.659-13.381 17.659M415.54 105.482c1.994 3.819 5.976 6.606 12.285 6.607 13.059 0 16.229-7.483 16.618-16.953l-1.373-.081c-.337 7.979-2.896 12.122-5.854 12.122-1.293 0-2.212-.671-2.212-2.526V27.323h10.965v-1.334h-10.965V14.15c.148-5.677 3.847-6.858 7.945-7.153V5.665c-16.111 0-29.716 5.603-29.716 19.168v1.158h-6.329v1.334h6.329v65.4c0 1.287.083 3.671.188 4.792.313 3.327 1.06 5.934 2.119 7.965"/></g><g><defs><path id="g" d="M-5.496-8.86h767v127h-767z"/></defs><clipPath id="h"><use xlink:href="#g" overflow="visible"/></clipPath><g clip-path="url(#h)"><path d="M686.906 21.438v68.777c0 8.021-2.396 10.229-7.488 10.229-5.392 0-7.487-2.52-7.487-10.229V21.438c0-8.652 2.549-10.229 7.487-10.229 5.539 0 7.488 2.519 7.488 10.229zm-7.49 91.217c14.314 0 20.358-7.174 20.358-23.39V22.388c0-16.687-6.684-23.39-20.358-23.39-14.312 0-20.358 7.328-20.358 23.39v66.877c-.001 16.84 6.522 23.39 20.358 23.39zM745.264 11.485h-8.43v90.024h6.704v9.72h-26.26v-9.72h6.705V11.485h-8.434V28.12h-10.916V.329h51.546V28.12h-10.915z"/></g></g></g></svg>